<svg width="34" height="36" viewBox="0 0 34 36" fill="none" xmlns="http://www.w3.org/2000/svg">
<path d="M16.6562 13.6542H19.9875V8.69182H24.9843V5.38355H19.9875V0.421143H16.6562V5.38355H11.6594V8.69182H16.6562V13.6542ZM9.99373 28.5414C8.16155 28.5414 6.67915 30.0302 6.67915 31.8497C6.67915 33.6693 8.16155 35.158 9.99373 35.158C11.8259 35.158 13.325 33.6693 13.325 31.8497C13.325 30.0302 11.8259 28.5414 9.99373 28.5414ZM26.65 28.5414C24.8178 28.5414 23.3354 30.0302 23.3354 31.8497C23.3354 33.6693 24.8178 35.158 26.65 35.158C28.4821 35.158 29.9812 33.6693 29.9812 31.8497C29.9812 30.0302 28.4821 28.5414 26.65 28.5414ZM10.2769 23.1655L10.3269 22.967L11.8259 20.2708H24.2348C25.484 20.2708 26.5833 19.5926 27.1496 18.567L33.5789 6.97152L30.6808 5.38355H30.6641L28.8319 8.69182L24.2348 16.9625H12.5421L12.3256 16.5159L8.59461 8.69182L7.01227 5.38355L5.44659 2.07528H0V5.38355H3.33124L9.32749 17.9384L7.0789 21.9911C6.8124 22.4542 6.66249 23.0001 6.66249 23.579C6.66249 25.3986 8.16155 26.8873 9.99373 26.8873H29.9812V23.579H10.6933C10.4768 23.579 10.2769 23.3971 10.2769 23.1655Z" fill="black"/>
</svg>
